<?xml version="1.0" encoding="UTF-8" standalone="no"?>
<!-- Created with Inkscape (http://www.inkscape.org/) -->

<svg
   xmlns:dc="http://purl.org/dc/elements/1.1/"
   xmlns:cc="http://creativecommons.org/ns#"
   xmlns:rdf="http://www.w3.org/1999/02/22-rdf-syntax-ns#"
   xmlns:svg="http://www.w3.org/2000/svg"
   xmlns="http://www.w3.org/2000/svg"
   version="1.1"
   width="91.25"
   height="87.84375"
   id="svg2">
  <defs
     id="defs4">
    <linearGradient
       id="linearGradient5398">
      <stop
         id="stop5400"
         style="stop-color:#9175f0;stop-opacity:0"
         offset="0" />
      <stop
         id="stop5406"
         style="stop-color:#9175f0;stop-opacity:0.49803922"
         offset="0.5" />
      <stop
         id="stop5402"
         style="stop-color:#ffffff;stop-opacity:0"
         offset="1" />
    </linearGradient>
    <linearGradient
       id="linearGradient5366">
      <stop
         id="stop5368"
         style="stop-color:#00d2fd;stop-opacity:1"
         offset="0" />
      <stop
         id="stop5370"
         style="stop-color:#66b5ff;stop-opacity:0"
         offset="1" />
    </linearGradient>
    <linearGradient
       id="linearGradient5344">
      <stop
         id="stop5346"
         style="stop-color:#0045f8;stop-opacity:1"
         offset="0" />
      <stop
         id="stop5348"
         style="stop-color:#72ffc3;stop-opacity:1"
         offset="1" />
    </linearGradient>
    <linearGradient
       id="linearGradient5304">
      <stop
         id="stop5306"
         style="stop-color:#fafbfc;stop-opacity:1"
         offset="0" />
      <stop
         id="stop5312"
         style="stop-color:#66ffc6;stop-opacity:1"
         offset="1" />
    </linearGradient>
    <linearGradient
       id="linearGradient3810">
      <stop
         id="stop3812"
         style="stop-color:#000000;stop-opacity:1"
         offset="0" />
      <stop
         id="stop3814"
         style="stop-color:#ff0000;stop-opacity:1"
         offset="1" />
    </linearGradient>
    <linearGradient
       id="linearGradient3810-6">
      <stop
         id="stop3812-2"
         style="stop-color:#000000;stop-opacity:1"
         offset="0" />
      <stop
         id="stop3814-3"
         style="stop-color:#ff0000;stop-opacity:1"
         offset="1" />
    </linearGradient>
    <linearGradient
       id="linearGradient5304-9">
      <stop
         id="stop5306-8"
         style="stop-color:#fafbfc;stop-opacity:1"
         offset="0" />
      <stop
         id="stop5312-6"
         style="stop-color:#66ffc6;stop-opacity:1"
         offset="1" />
    </linearGradient>
    <linearGradient
       id="linearGradient5344-3">
      <stop
         id="stop5346-8"
         style="stop-color:#0045f8;stop-opacity:1"
         offset="0" />
      <stop
         id="stop5348-6"
         style="stop-color:#72ffc3;stop-opacity:1"
         offset="1" />
    </linearGradient>
    <linearGradient
       id="linearGradient5366-9">
      <stop
         id="stop5368-9"
         style="stop-color:#00d2fd;stop-opacity:1"
         offset="0" />
      <stop
         id="stop5370-8"
         style="stop-color:#66b5ff;stop-opacity:0"
         offset="1" />
    </linearGradient>
    <linearGradient
       id="linearGradient5398-2">
      <stop
         id="stop5400-4"
         style="stop-color:#9175f0;stop-opacity:0"
         offset="0" />
      <stop
         id="stop5406-5"
         style="stop-color:#9175f0;stop-opacity:0.49803922"
         offset="0.5" />
      <stop
         id="stop5402-2"
         style="stop-color:#ffffff;stop-opacity:0"
         offset="1" />
    </linearGradient>
  </defs>
  <metadata
     id="metadata7">
    <rdf:RDF>
      <cc:Work
         rdf:about="">
        <dc:format>image/svg+xml</dc:format>
        <dc:type
           rdf:resource="http://purl.org/dc/dcmitype/StillImage" />
        <dc:title></dc:title>
      </cc:Work>
    </rdf:RDF>
  </metadata>
  <g
     transform="translate(41.21875,78.5)"
     id="layer1">
    <path
       d="m 49.50747,-56.926289 0,65.7701701 -44.7235603,0 0,-65.7701701 z"
       id="path3008"
       style="fill:none;stroke:#000000;stroke-width:1.02304864px;stroke-linecap:butt;stroke-linejoin:miter;stroke-opacity:1" />
    <path
       d="M 48.88767,-56.671949 4.8567197,7.7055011 l 0,-64.3774501 z"
       id="path3032"
       style="fill:none;stroke:#000000;stroke-width:1.00596547px;stroke-linecap:butt;stroke-linejoin:miter;stroke-opacity:1" />
    <path
       d="m 5.4015597,-57.810719 18.9229903,-19.81843 24.2891,19.68878 z"
       id="path5314"
       style="fill:none;stroke:#000000;stroke-width:0.97511983px;stroke-linecap:butt;stroke-linejoin:miter;stroke-opacity:1" />
    <rect
       width="7.9212503"
       height="66.524895"
       x="-49.25106"
       y="-57.900898"
       transform="scale(-1,1)"
       id="rect5316"
       style="fill:none;stroke:#000000;stroke-width:0.89000314;stroke-miterlimit:4;stroke-opacity:1;stroke-dasharray:none" />
    <path
       d="m 49.50747,-56.926289 0,65.7701701 -44.7235603,0 0,-65.7701701 z"
       id="path5320"
       style="fill:none;stroke:#000000;stroke-width:1.02304864px;stroke-linecap:butt;stroke-linejoin:miter;stroke-opacity:1" />
    <path
       d="m 5.4015597,-57.810719 18.9229903,-19.81843 24.2891,19.68878 z"
       id="path5324"
       style="fill:none;stroke:#000000;stroke-width:0.97511983px;stroke-linecap:butt;stroke-linejoin:miter;stroke-opacity:1" />
    <rect
       width="7.9212503"
       height="66.524895"
       x="-49.25106"
       y="-57.900898"
       transform="scale(-1,1)"
       id="rect5326"
       style="fill:none;stroke:#000000;stroke-width:0.89000314;stroke-miterlimit:4;stroke-opacity:1;stroke-dasharray:none" />
    <path
       d="m -40.70665,-56.926289 0,65.7701701 44.7235497,0 0,-65.7701701 z"
       id="path5374"
       style="fill:none;stroke:#000000;stroke-width:1.02304864px;stroke-linecap:butt;stroke-linejoin:miter;stroke-opacity:1" />
    <path
       d="m -40.08686,-56.671949 44.0309597,64.3774501 0,-64.3774501 z"
       id="path5376"
       style="fill:none;stroke:#000000;stroke-width:1.00596547px;stroke-linecap:butt;stroke-linejoin:miter;stroke-opacity:1" />
    <path
       d="m 3.3992597,-57.810719 -18.9229997,-19.81843 -24.28909,19.68878 z"
       id="path5378"
       style="fill:none;stroke:#000000;stroke-width:0.97511983px;stroke-linecap:butt;stroke-linejoin:miter;stroke-opacity:1" />
    <rect
       width="7.9212503"
       height="66.524895"
       x="-40.450233"
       y="-57.900898"
       id="rect5380"
       style="fill:none;stroke:#000000;stroke-width:0.89000314;stroke-miterlimit:4;stroke-opacity:1;stroke-dasharray:none" />
    <path
       d="m -40.70665,-56.926289 0,65.7701701 44.7235497,0 0,-65.7701701 z"
       id="path5384"
       style="fill:none;stroke:#000000;stroke-width:1.02304864px;stroke-linecap:butt;stroke-linejoin:miter;stroke-opacity:1" />
    <path
       d="m 3.3992597,-57.810719 -18.9229997,-19.81843 -24.28909,19.68878 z"
       id="path5386"
       style="fill:none;stroke:#000000;stroke-width:0.97511983px;stroke-linecap:butt;stroke-linejoin:miter;stroke-opacity:1" />
    <rect
       width="7.9212503"
       height="66.524895"
       x="-40.450233"
       y="-57.900898"
       id="rect5388"
       style="fill:none;stroke:#000000;stroke-width:0.89000314;stroke-miterlimit:4;stroke-opacity:1;stroke-dasharray:none" />
    <path
       d="m 48.71796,-23.580179 0,-31.70782 -3.3743,4.94731 -3.3743,4.94729 0,26.76052 0,26.7605201 3.3743,0 3.3743,0 0,-31.7078201 z"
       id="path5564"
       style="opacity:0.16460906;fill:#3edcc1;fill-opacity:1;fill-rule:nonzero;stroke:#000000;stroke-width:0.25730059;stroke-miterlimit:4;stroke-opacity:1;stroke-dasharray:none" />
    <path
       d="m -33.0151,-18.532479 0,-26.66011 -3.38493,-4.93085 c -1.86171,-2.71198 -3.43638,-4.98474 -3.49928,-5.05058 -0.0628,-0.0658 -0.11434,14.15007 -0.11434,31.59096 l 0,31.7107001 3.49928,0 3.49927,0 0,-26.6601201 z"
       id="path5566"
       style="opacity:0.16460906;fill:#5fb3f9;fill-opacity:1;fill-rule:nonzero;stroke:#000000;stroke-width:0.25730059;stroke-miterlimit:4;stroke-opacity:1;stroke-dasharray:none" />
    <path
       d="m 24.37904,-77.948849 -39.58977,0"
       id="path5572"
       style="fill:none;stroke:#000000;stroke-width:1.1097964px;stroke-linecap:butt;stroke-linejoin:miter;stroke-opacity:1" />
    <path
       d="m 13.83815,-67.572919 9.18538,-9.62302 -18.5526003,0 -18.5526197,0 9.18539,9.62302 c 5.0519597,5.29265 9.2672097,9.62299 9.3672297,9.62299 0.10001,0 4.31526,-4.33034 9.3672203,-9.62299 z"
       id="path5574"
       style="opacity:0.25514401;fill:#7109fb;fill-opacity:1;fill-rule:nonzero;stroke:#000000;stroke-width:0.36387801;stroke-miterlimit:4;stroke-opacity:1;stroke-dasharray:none" />
    <path
       d="m 23.1907,-20.323009 17.40891,-25.49847 0,-5.02018 0,-5.02017 -17.49726,0 -17.4972703,0 0,30.53454 c 0,16.7940101 0.0398,30.5274101 0.0883,30.5186601 0.0486,-0.008 7.9223803,-11.49022 17.4972603,-25.5143801 z"
       id="path5580"
       style="fill:none;stroke:none" />
    <path
       d="m 45.677548,-59.125373 c -3.21821,-2.709166 -19.650516,-15.882247 -20.341623,-16.307014 -1.017761,-0.625536 -6.926668,4.775066 -13.664657,12.489174 l -3.5513823,4.065864 18.9261453,0 c 10.40938,0 18.793562,-0.111611 18.631517,-0.248024 z"
       id="path5692"
       style="opacity:0.3415638;fill:#767676;fill-opacity:1;fill-rule:nonzero;stroke:#000000;stroke-width:1.92545176;stroke-miterlimit:4;stroke-opacity:1;stroke-dasharray:none" />
    <path
       d="m 3.3100667,-25.479186 0,-30.569736 -17.6776667,0 -17.67767,0 0.006,4.772971 0.006,4.772971 15.98982,23.334524 C -7.249387,-10.334468 0.7029417,1.2740761 1.6280507,2.6283091 l 1.682016,2.46224 0,-30.5697351 z"
       id="path5694"
       style="opacity:0.3415638;fill:#868686;fill-opacity:1;fill-rule:nonzero;stroke:#000000;stroke-width:1.92545176;stroke-miterlimit:4;stroke-opacity:1;stroke-dasharray:none" />
    <path
       d="m 40.786726,-17.29947 c 0,-14.278165 -0.268101,-25.300217 -0.606291,-24.925514 -1.117561,1.238222 -34.0419413,49.7136531 -34.0419413,50.1208461 0,0.221063 7.7958533,0.401933 17.3241163,0.401933 l 17.324116,0 0,-25.5972651 z"
       id="path5696"
       style="opacity:0.3415638;fill:#868686;fill-opacity:1;fill-rule:nonzero;stroke:#000000;stroke-width:1.92545176;stroke-miterlimit:4;stroke-opacity:1;stroke-dasharray:none" />
    <path
       d="m 23.28427,-20.874166 17.499328,-25.628814 0.0016,-4.772971 0.0016,-4.772971 -17.677669,0 -17.6776693,0 0,30.405592 c 0,16.7230751 0.07955,30.4038781 0.176776,30.4017841 0.09723,-0.0021 8.0514753,-11.536773 17.6761063,-25.6326201 l 0,0 z"
       id="path5698"
       style="opacity:0.3415638;fill:#c5c5c5;fill-opacity:1;fill-rule:nonzero;stroke:#000000;stroke-width:1.92545176;stroke-miterlimit:4;stroke-opacity:1;stroke-dasharray:none" />
    <path
       d="m -13.79785,-16.627719 c -9.36268,-13.709032 -17.29854,-25.227802 -17.63524,-25.597265 -0.34594,-0.379599 -0.61218,10.460793 -0.61218,24.925514 l 0,25.5972651 17.63523,0 17.6352347,0 L -13.79785,-16.627719 z"
       id="path5700"
       style="opacity:0.3415638;fill:#c5c5c5;fill-opacity:1;fill-rule:nonzero;stroke:#000000;stroke-width:1.92545176;stroke-miterlimit:4;stroke-opacity:1;stroke-dasharray:none" />
    <path
       d="m -1.528702,-61.528999 c -1.171048,-1.458408 -4.837287,-5.329635 -8.147198,-8.602728 l -6.01802,-5.951077 -2.34205,1.788055 c -1.28812,0.983431 -6.11584,4.854658 -10.72825,8.602728 l -8.38622,6.814672 18.87546,0 18.8754547,0 -2.1291767,-2.65165 z"
       id="path5702"
       style="opacity:0.3415638;fill:#c5c5c5;fill-opacity:1;fill-rule:nonzero;stroke:#000000;stroke-width:1.92545176;stroke-miterlimit:4;stroke-opacity:1;stroke-dasharray:none" />
  </g>
</svg>
